<svg version="1" xmlns="http://www.w3.org/2000/svg" width="480" height="480" viewBox="0 0 360.000000 360.000000"><path d="M161.7 1.1C126.1 4.6 90.3 20.3 61.2 45.2 39 64.3 19.2 94.1 9.6 123.1c-28.2 85 10 177.3 89.9 217.4 81.6 40.9 180.6 14.3 230.8-62 16.3-24.9 26.1-53.5 28.8-84.6 2-22.6-1.1-48.2-8.7-70.9C324 43.5 245.7-7 161.7 1.1zm41 45.5c48.5 7.8 88.5 41.5 104.6 88.4 4.9 14.3 6.2 23.1 6.2 42 0 13.1-.5 19.6-1.8 26-11.3 52.9-50.8 92.4-103.7 103.7-11.9 2.5-40.1 2.5-52 0-52.9-11.3-92.4-50.8-103.7-103.7-2.5-11.9-2.5-40.1 0-52 10.3-47.8 43.9-85.1 90-99.9 5.3-1.7 13.4-3.7 18-4.5 11.3-1.9 30.8-1.9 42.4 0z"/><path d="M170.5 71c-29 3.3-55.4 18.2-72.9 41-20.2 26.3-26.9 59.7-18.6 92.5 2.6 10.1 11.3 28 17.8 36.5 34.3 45.1 97.5 55.7 144.9 24.3 7.6-5 19.4-16.2 25.5-24.3 6.5-8.5 15.2-26.4 17.8-36.5 8.3-32.8 1.6-66.2-18.6-92.5-4.7-6.1-14.8-16.1-20.9-20.7-20.7-15.4-49.7-23.3-75-20.3zm9.6 79l24.9 43.5V106h34v142h-33.7l-24.9-43.6-24.9-43.6-.3 43.6-.2 43.6h-34V106l17.1.2 17.2.3 24.8 43.5z"/></svg>